<svg width="538" height="371" viewBox="0 0 538 371" fill="none" xmlns="http://www.w3.org/2000/svg">
<path d="M324.733 338.566C299.56 380.767 238.44 380.767 213.267 338.566L205.737 325.942C192.737 304.148 167.375 292.961 142.514 298.054L72.5135 312.397C35.7399 319.931 11.4979 275.229 37.8727 248.518C56.9576 229.19 49.986 196.586 24.7632 186.506C-13.0322 171.401 -5.07819 115.407 35.498 112.212L66.5528 109.767C93.15 107.672 112.32 83.3561 108.148 57.0048L107.849 55.1148C101.547 15.3139 144.535 -13.7713 179.136 6.88181L235.74 40.6674C256.227 52.8961 281.773 52.8961 302.26 40.6674L358.864 6.88181C393.465 -13.7713 436.453 15.3139 430.151 55.1148L429.852 57.0047C425.68 83.3561 444.85 107.672 471.447 109.767L502.502 112.212C543.078 115.407 551.032 171.401 513.237 186.506C488.014 196.586 481.042 229.19 500.127 248.518C526.502 275.229 502.26 319.931 465.486 312.397L395.486 298.054C370.625 292.961 345.263 304.148 332.263 325.942L324.733 338.566Z" fill="#4A3764"/>
</svg>
